<svg viewBox="0 0 32 32" aria-hidden="true" xmlns="http://www.w3.org/2000/svg">
  <path fill="#25D366" d="M16 3C9.37 3 4 8.37 4 15c0 2.1.55 4.08 1.51 5.79L4 29l8.4-1.43A11.9 11.9 0 0 0 16 27c6.63 0 12-5.37 12-12S22.63 3 16 3z"/>
  <path fill="#fff" d="M23.2 19.52c-.33-.16-1.94-.95-2.25-1.06-.3-.11-.52-.16-.75.16-.22.32-.86 1.06-1.06 1.27-.2.22-.39.24-.72.08-.33-.16-1.4-.52-2.67-1.66-.99-.88-1.66-1.97-1.86-2.3-.2-.33-.02-.51.14-.67.15-.15.33-.39.5-.58.16-.2.22-.33.33-.55.11-.22.05-.41-.03-.58-.08-.16-.75-1.81-1.03-2.48-.27-.66-.54-.57-.75-.57-.2 0-.41-.02-.63-.02-.22 0-.58.08-.89.41-.3.33-1.17 1.14-1.17 2.78 0 1.64 1.2 3.22 1.37 3.45.16.22 2.36 3.6 5.73 5.05.8.35 1.42.56 1.9.71.8.25 1.52.21 2.09.13.64-.1 1.94-.8 2.22-1.58.27-.78.27-1.45.19-1.58-.08-.13-.3-.2-.63-.36z"/>
</svg>
